<?xml version="1.0" encoding="UTF-8"?><svg id="Layer_1" xmlns="http://www.w3.org/2000/svg" viewBox="0 0 479.19 66"><defs><style>.cls-1{fill:#4e5a70;}.cls-2{fill:#a67c3c;}</style></defs><path class="cls-2" d="M30.77,56.93c-.04-.23-.11.83.01.65-.09.03-.12.04-.16.04-.05,0-.08.05-.05.09.01.02.12.05.15.08-.27.8.23.48-.04,1.13-.04.04-.12-.01-.15.01-.05.04-.02.18-.04.24-.3.77.32.91-.19,1.14-.07.18.05.37-.07.52-.09-.39.11-.71-.08-1.08,0,.44-.14.89-.07,1.36.04.27.11.54-.18.77-.66-.65-.42-2.06-.58-2.91-.33.55-.11-1.5-.07-1.44-.02-.03-.06-.03-.11-.05.02-.22.09-.47.02-.7-.07-.16-.13-.13-.13.09-.09-.33-.41-.22-.69-.27-.29-.05-.57-.08-.87-.09-.64-.03-1.25-.18-1.86-.16l.58.17-2.05-.17c-.65-.05-1.27-.17-1.91-.21.22-.13.43-.11.71-.07-.13-.19-.35-.11-.56-.13-1.43-.14-2.74-.83-4.09-1.28.58.45,1.21.85,1.94,1.01l1.88.41c-.29-.09-.62.13-.85.07l-1.89-.49.12-.12c-.77-.43-.94-.42-1.61-1.04l-.49-.45c-.21-.19-.4-.09-.55-.17-.2-.1-.24-.48-.55-.52-.12-.01-.43-.56-.34-.68-.07-.04-.21-.05-.23-.11-.04-.08-.07-.26,0-.35.27-.37.42-.77.65-1.15.41-.67.77-1.36,1.25-1.98.21-.27.41-.43.54-.77.24-.62.76-.99.87-1.21.09-.18.24-.4.37-.55.27-.31.36-.62.54-.98.1-.2.35-.53.53-.64.26-.17.26-.35.38-.58.38-.68.86-1.28,1.3-1.93l2.02-2.99,1.05-1.49c.46-.66.93-1.3,1.32-2.02.17-.32.44-.52.64-.8l1.48-2.11c-.52-.11-.4,0-.52.08.15-.1-1.12-.11-1-.13l-.67.07c-.86.09-1.71.05-2.58.13l-2.69.24c-.09-.11-.06-.18-.12-.2-.08-.02-.24-.03-.28.03.08.04.16.03.14.11-.32-.07-.61-.09-.93-.03-.58.09-1.14.05-1.72.09-1.16.1-2.27.16-3.44.19-.31,0-.63.04-.91.11s-.49.01-.76.02l-1.72.05c-.38.01-.8.21-1.11.12-.33-.19-.63-.01-.98.03-.61.08-1.2.09-1.78.11l.3-.11c-.21-.14-.33.02-.48.06-.33.09-.67.16-1.04.15.07-.22.25,0,.38-.16-.51-.01-1.02-.02-1.56,0-.16,0-.34.17-.49-.03.2-.15.42,0,.62-.06.43-.13,2.13-.35,2.49-.35.83,0,3.5-.26,4.35-.4l1.44-.24c.26-.04.45.1.66.08l3.95-.33,3.34-.28.55-.17.62-.05c.9-.08,1.78-.18,2.67-.22.5-.02.97-.04,1.47-.09.05,0,.12-.1.18-.09.05.01.07.08.13.11.08-.23.36-.15.5-.09-.19.03-.27.08-.11.12.29-.02.56-.02.72-.19.09.05.21.2.4.08-.08-.07-.09-.18-.15-.28l-1.87-2.85c-.17-.25-.14-.56-.39-.82-.28-.3-.51-.71-.71-1.07-.26-.47-.62-.77-.95-1.13-.23-.25-.29-.56-.57-.82-.23-.21-.57-.72-.65-1.03-.07-.27-.23-.27-.35-.44l-2.22-3.17-.82-1.22-2.64-3.71c-.11-.16-.17-.31-.29-.44l-.99-1.01c-.02-.06.1-.12.12-.19-.06-.24-.09-.43-.07-.71-.1.02-.03.16-.17.13l.28-.74c.09-.23.29-.51.51-.63.44-.24,1.72-.94,2.08-1.07.22-.08.45-.06.7-.17.54-.24,1.16-.42,1.75-.53l1.88-.35.6-.17,1.77-.27,2.31-.26,1.61-.08.02-3.25c.17.24.02.47.13.69.2-.7.09-1.39.18-2.12.1.42-.03.85.15,1.3.16-.31-.14-.66.16-.99-.06.48.01.89.02,1.33,0,.76-.03,1.49.02,2.24.02.31.16.6.07.98l3.23.15-2.24.07-.18-.05s-.14.02-.1.17c.95-.26,2.38.14,3.03-.31.42-.03.91.15,1.34.18.27.02.43.16.67.21,1.06.24,2.15.32,3.19.64.26.08.48.02.71.09l1.48.44c-.04.14-.13.04-.23.1.18.16.43.19.64.33.52.35,1.02.69,1.51,1.07.16.12.31.34.2.5-.13-.07-.23-.1-.32,0-.12.14-.11.27.03.37.08-.15.04-.28.13-.38.05.06.02.16.04.22.01.05.05.05.16.08-.06.08-.15.07-.17.17h.18s.11.48.03.59c-.16.22-.33.4-.39.7-.18-.07-.06-.13-.03-.25-.3.08-.43.29-.55.53-.25.48-.67.85-.89,1.35-.04.09-.85,1.39-.9,1.47l-.71.94c-.25.33-.38.73-.66,1.05-.26.29-.48.62-.77.89-.3.28-.66.54-.72,1.01,0,.05.08.1.07.14-.02.05-.07.18-.12.22-.65.67-2.19,3.02-2.76,3.91-.39.62-.77,1.19-1.07,1.87-.03.06-.19,0-.23.02-.59,1-1.18,1.71-1.84,2.76l.29-.03c-.36.49-.85.78-1.19,1.37.62-.07,1.24,0,1.86-.07l1.16-.14c.93-.11,1.85-.1,2.78-.22.23-.03.41-.12.67-.14l2.15-.15,1.36-.06,1.94-.15-.65-.1c.98-.17,1.98-.09,3.02-.19l2.57-.23c.99-.09,1.95-.24,2.96-.22.67,0,1.32.14,2,.11.26-.01.51.18.8.15-.17.16-.37.26-.59.28-.05,0-.03-.09-.05-.11-.11-.12-1.51.36-1.75.23.38-.1.76-.09,1.13-.29.21-.11.48.07.68-.1.11-.21-2.89.45-2.59.33l-.33.13c-.11.04-.21-.08-.32-.21-.07.05-.04.11-.05.13-.02.03-2.29.44-2.55.58.53.13.98-.1,1.46-.14l.47-.04c.41-.04.83-.21,1.25-.2.35.01.64.1,1.01,0,.52-.15,1.04-.13,1.59-.33-.26.47-1.39.33-2,.57-.38.15-.82,0-1.22.14-.19.06-.34.05-.53.07l-2.22.19c-1.01.09-1.74.15-2.8.25h2.11c-.77.1-1.51.08-2.3.14l-3.71.27c-.54.04-1.05-.03-1.62.03l-3.79.34c-.3.03-.55.17-.87.15-.48-.03-.93.19-1.44.09.14-.1.31-.05.43-.17l-2.34.23c.25.32.38.6.57.88l1.48,2.19,3.26,4.89.26.34c.22.3.43.63.63.94l.72,1.15c.43.69.87,1.33,1.23,2.06.07.15.38.19.29.45.17-.14.27.37.69.93.06.08.21.08.23.17.03.11.06.22,0,.28-.25-.1-.28-.3-.49-.42.42.86.83,1.42,1.39,2.22.08-.16-.03-.28-.07-.41.36.38.6.89,1.02,1.25.18.15.34.18.45.44.07.18.34.34.41.56.1.3.34.4.56.59.38.32.68.9.58,1.39-.04.22-.08.3-.02.47.07.2-.32.29-.41.41-.14.21-.18.56-.54.6l.28-.33c-.24.02-.41.13-.59.31-.01.01-1.51.96-1.64.92.04-.31-1.01.38-1.25.37,0-.14.14-.1.19-.18-.14.02-.45,0-.34.15-.73.3-1.62.35-2.45.62-.3.1-.52.18-.86.22-1.06.1-2.08.31-3.16.32-.23,0-.41-.06-.56.19.19,0,.33-.09.44.05-.11,0-1.57.07-1.41.1-.08-.02-.08-.1-.2-.19-.06.34-.35.33-.64.29ZM25.05,9.42c.63.07,1.22-.05,1.84-.08l.95-.04c.16,0,1.74-.04,1.67-.17-.32.15-.52-.15-.71-.16-.78-.05-1.55.04-2.31.15l-1.75.27c-.51.08-1.02.11-1.48.3,1.21.3.79-.31,1.5-.16.07.02.2-.13.3-.12ZM37.53,9.98l-1.38-.38-1.49-.18c-.42-.05-.82-.15-1.22-.02.5.07.96.11,1.45.18l2.64.4ZM32.66,9.82c.63-.1,1.25-.14,1.86-.12-.28-.19-.55-.09-.85-.14-.48-.08-1.03-.29-1.51-.13-1.04.34-.42-.28-1.79.43.49.14.91.18,1.35.11l.93-.14ZM22.08,10.78c1.29-.25.65-.35.97-.41.39-.07.7-.25,1.06-.39.47-.18.97-.18,1.39-.46-.46.03-.83.22-1.25.33-.59.16-1.17.31-1.72.57-.08.04-.12.18-.17.22-.08.06-.2-.11-.27-.09-.79.21-1.55.46-2.35.74.08.19.2.03.31,0,.67-.19,1.33-.37,2.04-.51ZM34.32,9.98h.74c.55.01,1.05,0,1.62.02-.69-.27-1.41-.25-2.15-.17-.4.04-.78-.02-1.16.23.31.09.62-.07.96-.07ZM28.77,10.07c.08,0,.13-.02.16-.04.02-.01.08-.06.06-.11-.65-.05-1.38.08-1.92.04-.41-.03-.76.17-1.14.09.15-.11.15-.14-.02-.1-.17.13-.39.2-.64.18-.22-.02-.45.23-.6.11-.15-.11-.29.06-.45.06-.28,0-.57,0-.87.19,1.75-.16,3.58-.5,5.44-.42ZM31.93,15.96c.86,0,1.66-.13,2.51-.22.77-.08,1.49-.14,2.24-.29l1.61-.32c.16-.03.28-.06.45-.12.27-.1,1.28-.13,1.35-.54.7-.02,1.22-.47,1.69-.95.18-.18.72-.2.56-.63-.07-.19-.4-.26-.55-.39.11-.09.16-.14,0-.13-.09-.02-.25.01-.27-.03l-.09-.19c-.47-.02-.79-.28-1.15-.5-.46-.27-.96-.54-1.48-.68l-.84-.21-1.91-.39c-.23-.05-.45.04-.73-.09s-.99-.1-1.37-.03c.41.16.84.13,1.29.18l.57.06,1.47.26,1.69.43s-.12.07-.12.15c.12.1.27.05.34.19-.4-.04-.7-.2-1.05-.33-.8-.28-1.68-.32-2.54-.44-.22-.03-.42-.11-.64-.08s-.33-.19-.47-.2l-2.83-.29c-.06.07-.05.12-.08.14-.03.02-.09-.06-.13-.06h-.99c-.1,1.39-.08,2.74-.07,4.14l.02,1.59c.51.11,1.01-.03,1.52-.03ZM20.39,14.76c-.15.06-.26.06-.17.1.32.21.62.21.96.27-.14-.15-.34-.13-.51-.24l.8.15c-.08.07-.14.09-.12.12.02.02.07.08.12.09l1.88.36c.17-.03.14-.09-.07-.11.16-.16.39-.03.59.04.31.11.62.02.91.08-.12.12-.25,0-.38.08.28.09.58.16.87.08-.16-.13-.34.06-.46-.12.53-.1.97.15,1.46.2.99.1,1.94.09,2.99.12l.14-2.4.06-3.3c-1.19-.06-2.03.16-3.2.17.06-.19.26.03.3-.17-.67.07-1.31.13-1.94.22-.05,0-.11.19-.16.13-.02-.02-.04-.12-.12-.11-1.13.19-2.25.39-3.33.76-.33.11-.59.16-.93.2-.28.04-.52.37-.84.31-.23-.04-.37.07-.56.16-.48.24-1.01.45-1.31.9.04.07.13.13.1.17-.03.05-.08.1-.11.19.22.16.54.21.69.47-.03.06-.1.11-.06.14.03.02.1.12.14.12.21,0,.27.19.39.28.44.34,1,.44,1.49.59-.01-.17-.18-.08-.21-.21.25-.03.4.1.58.18ZM29.65,14.01c.08-.63.09-1.23,0-1.86-.03-.19.13-.42-.08-.58-.03.85.04,1.65-.04,2.47-.06.65-.09,1.29.02,1.97.2-.69,0-1.33.09-2ZM33.23,16.58c1.12-.08,1.4-.12,2.38-.25.42-.06.8-.17,1.21-.23l.62-.1c.85-.13,1.62-.43,2.44-.71l.83-.28c.19-.06.47-.03.45-.32-.3-.02-.37.14-.53.22-.25.13-.57.18-.84.27l-.86.3-1.18.29c-.1.03-.23-.04-.35,0-1.03.25-2.03.5-3.09.61-.26.03-1.15.05-1.08.21ZM39.85,18.04c.89-.88,1.49-2.32,2.32-3.29-.02-.31-1.18,1.46-1.08,1.27-.36.7-.79,1.31-1.24,2.01ZM30.61,30.06l.89-1.35c.14-.21.31-.42.45-.63l.68-.97c.19-.28.42-.47.61-.77.17-.26.27-.52.41-.79.27-.54.64-.98.98-1.48l2.78-4.08c.5-.73,1-1.37,1.51-2.08l1.99-2.73c-.22.06-.39.15-.61.16-.51.25-1.03.4-1.58.52l-1.98.45c-.91.21-3.57.55-4.51.5-.27-.02-.5.17-.75.13-.37-.06-.68.04-1.06,0,.08.73-.05,1.34-.06,2.04l-.06,5.58c0,.42.08.81.03,1.22-.04.28,0,.51,0,.78-.01,1.27,0,2.52.05,3.76.22.03.17-.15.23-.25ZM26.43,26.46c.51.9.98,1.23,1.38,2.01-.12.06-.13-.05-.17-.07-.03,0-.09.05-.07.06l.11.07c-.14-.09,1.22,1.51,1.07,1.42.3.17.41.4.64.75v-2.14s-.03-1.3-.03-1.3v-4c0-1.34-.05-2.61-.09-3.94l-.06-2.34-1.9-.05-4.26-.47c-.51-.06-.96-.03-1.47-.17-.15-.04-.29-.15-.42-.19.03,0-1.42-.2-1.64-.34-.29-.18-.54-.38-.96-.37.17.21.22.61.48.75.22.12.19.24.32.39l.56.64,2.14,3.2c-.76-.63-1.17-1.47-1.78-2.21.09.25.28.5.45.71.43.53.78,1.07,1.15,1.63l1.04,1.56,1.71,2.37,1.36,2c.2.3.25.68.6.88.12-.29-.11-.45-.25-.65l-2.16-3.07c-.2-.28-.46-.5-.58-.83-.08-.1.04-.17.11-.09l1.8,2.53c.31.43.67.77.94,1.26ZM24.23,16.1c-.37-.05-.72.08-1.04,0-.27-.06-.51-.1-.79-.09-.32.01-.6-.21-.94-.11.71.22,1.43.29,2.19.37.61.06,2.41.15,2.92-.03-.79.01-1.52-.03-2.34-.15ZM37.95,19.74c.34-.26.51-.6.75-.88.11-.36.41-.58.63-.87.5-.66,1.03-1.26,1.44-2-.27.11-.46.37-.65.64-.44.62-.94,1.17-1.3,1.84-.26.47-.66.79-.87,1.27ZM30.03,27.7c.02.75.04,1.48.01,2.2-.01.3-.09.64.07.94v-4.27s-.04-1.16-.04-1.16c-.03-.69,0-1.34-.05-2.01-.03-.46-.02-.91-.02-1.37,0-.62-.05-1.21.02-1.79l.1,1.37v-3.67s-.09.94-.09.94c-.1-.19.01-.39-.17-.51.05.34-.07.63.03.94l.17-.23v.66c-.08-.03-.03-.16-.19-.15.02.85,0,1.65.02,2.49l.1,3.69.05,1.92ZM35.24,23.76c-.09.09,0,.32-.02.39,1.13-1.34,1.78-2.66,2.93-4.03-.14-.18-.25-.06-.32,0-.09.07-.08.23-.12.32-.35.73-1.17,1.42-1.75,2.27-.24.35-.39.71-.72,1.05ZM29.67,26.38c.11-.66,0-1.3,0-1.96,0-.53.08-1.02.02-1.56,0,.02.06-1.42-.13-1.33,0,.73.01,1.17.02,1.87v3.55c.28-.16.06-.39.09-.58ZM46.03,30.86c-.02-.06,0-.12-.03-.13-.03-.02-.09.05-.12.05-.68-.03-1.32.14-1.98.2-.43.04-.86-.07-1.22.23.24.05.41-.05.65-.06-.01.1-.14.05-.16.13.84.05,1.9-.59,2.75-.39l-.87.15c.89.2,1.43-.36,2.16-.15-.15.11-.35-.06-.41.16.99-.05,1.89-.46,2.85-.7.67-.16,1.38.11,2.01-.19-.72,0-.54-.24-1.3-.14.06.11.12.05.18.05.05,0,.05.06,0,.07-.04,0-.08.04-.13.04l-2.41.07c-.05,0-.14.01-.16.04-.19.26,1.22-.07,1.4.07-.15.2-.38.08-.58.14-.23.07-.45.22-.66.1.11-.1.29.06.32-.14-.36-.06-.59.16-.91.14-.24-.17,1.02-.09.36-.29-.04-.01-.07.02-.15.08-1.48.03-2.92.17-4.39.33-.27.03-.51.09-.76.16.33.09.62,0,.94-.04.51-.07,2.65-.27,3.01-.22-.11-.02.9-.02.83-.08.24.19-1.1.29-1.21.29ZM35.75,31.49h.82c1.37-.03,3.8-.43,5.27-.57-.33-.16-.66-.04-1.01,0l-.59.07-4.06.37c-.56.05-1.08,0-1.59.12.39.06.76.01,1.17,0ZM39.12,31.82c.61.07,1.12-.03,1.66-.07l3.05-.23c.73-.05,1.42-.05,2.16-.19-.18-.12-.42-.08-.62,0-.37.13-.75-.02-1.11.03-.43.06-.84.08-1.28.11l-1.32.1c-.89.07-1.73.1-2.54.26ZM20.48,32.84l.69-.07c.34-.04.66-.09,1.01-.02.04-.07.03-.16.05-.15l.16.04c-.06-.01,1.75-.11,1.94-.13l2.3-.23c-.02-.13-1.88.05-2.02.07-.87.14-1.12-.04-2.08.14-.19.04-.42.07-.62.09l-1.43.14-1.29.15c-.34.04-.66.02-1.01.08-.32.06-.61.07-.94.1.3.1.61.03.94-.03.49-.09.95-.04,1.44-.09l.88-.09ZM20.57,33.18l1-.06,4.29-.3,1.45-.04s.11-.08.1-.1c-.01-.03-.09-.05-.15-.04l-4.73.28-.78.08c-.45.05-1.73.03-2.09.2.28.09.57,0,.9-.02ZM11.68,33.68l2.03-.24c.41-.05.81,0,1.17-.18l-2.75.13c-.94.04-1.83.21-2.73.3.23.14.44-.02.66-.02h1.61ZM38.6,49.07c.32.1.61.15.9.34.44.3,1.12.41,1.76.7-.15-.24-.16-.38-.08-.61.03-.12-.23-.14-.27-.21l-.31-.5c-.12-.19-.18-.35-.41-.39.09-.13.15-.15.05-.2-.07-.04-.06-.12-.17-.02-.1-.03-.18-.24-.17-.36,0-.17-.18-.14-.24-.22l-1.23-1.77-.37-.5c-.3-.41-.58-.8-.87-1.22l-1.84-2.67-1.85-2.66c-.08-.11,0-.31-.16-.42-.35-.25-.53-.67-.82-.96-.15-.15-.13-.28-.21-.44-.2-.35-1.17-1.59-1.16-1.6l.07-.13c-.04-.08-.77-1.38-.84-.93-.05.26.56.39.31.56-.24-.09-.24-.35-.42-.46-.05.14-.06.27-.01.42.05-.04,0-.15.12-.15v3.27c-.02.82.09,1.61,0,2.4l-.1-.66c-.14,1.14.22.26.12,1.33-.17-.21.1-.42-.14-.55-.02.4.04.74,0,1.09.15-.13.01-.3.19-.38l.04,1.31.11,5.74,1.43.09c.28.02.57.11.83.04.12-.01.29.14.48.1.42-.08.81.02,1.22.06l1.79.16c.78.07,1.53.16,2.29.4ZM19.41,48.47c.45-.49.74-1.04,1.13-1.56.25-.33.37-.72.68-1.02,0,.33-.24.58-.43.77-.18.18-.1.34-.16.51-.18.49-1.53,2.18-1.81,2.88.95-.33,1.86-.57,2.79-.84.63-.18,1.21-.26,1.85-.32.91-.09,1.81-.21,2.72-.38.26-.05.46-.15.74-.16.75-.03,1.45-.13,2.25-.12-.05-.65.08-1.24.09-1.89l.08-5.6.04-3.57c-.44-.18-.02-.58-.18-1.24.24.06-.02.26.18.4.02-.42.08-.79.02-1.18-.13.07.02.21-.12.22-.06-.35-.03-.66.01-.97.15.16-.02.3.1.46.04-.15.07-.39-.03-.55s-.37-.05-.46.11l-.34.59c-.14.24-.21.47-.36.72-.3.48-.72.88-.97,1.38-.13.25-.24.43-.44.67-1.22,1.44-.45.7-1,1.7-.32.58-.7,1.09-1.07,1.64l-1.29,1.94c-.16.24-.27.51-.56.64-.05.02.02.15-.02.21l-1.27,1.85c0-.48.49-.68.62-1.11.02-.06-.1-.07-.09-.11.01-.05.04-.15.07-.18.31-.28.41-.65.62-.98.27-.42.58-.86.92-1.22.22-.24.26-.45.43-.73l.78-1.28c-.31.32-.56.7-.82,1.1l-.81,1.2-.7,1.03c-.25.36-.46.71-.74,1.05-.2.25-.27.67-.54.87-.16.12-.19.21-.29.37l-1.63,2.69ZM29.96,40.26l.09-1.4c.01-.16.07-.26,0-.42-.08-.18.08-.39.09-.57.01-.69.05-1.34-.02-2-.04,1.29-.29.61-.08,1.71.04.2-.02.25-.06.39-.06.2-.13,2,0,2.28ZM38.33,45.19l-.3-.43-2.05-3.02-.73-1c.08.44.4.7.63,1.04l2.46,3.63c.34.5.62.99,1.05,1.42-.06-.56-.66-1.07-1.06-1.65ZM30.04,46.12l-.04-2.85c.12-.25.03-.5.04-.74.04-.58.01-1.12.02-1.7-.07.01-.14.07-.14.14l-.02,1.79v2.16c.04.39-.2.86.13,1.2ZM18.13,49.69c.33-.3.57-.65.72-1.08.5-.15.48-.66.66-1.17-.55.53-.88,1.2-1.33,1.82-.21.29-.4.52-.61.83l-.52.75c.28.02.67-.77,1.07-1.15ZM25.84,48.81c.35-.03.67-.08,1.02-.14.58-.1,1.77.11,2.37-.21-.43-.1-.82.05-1.23.04-.39,0-.76.02-1.15.07l-3.18.4c-.15.02-1.63.26-1.63.39l3.16-.49.65-.05ZM31.59,48.85c1.08.1,2.1.16,3.15.04-.28-.03-.51-.08-.77-.14-.82-.2-2.62-.03-3.41.22.61.07,1.14.14,1.75.11l-.72-.22ZM37.57,48.9c-.41-.11-.77-.04-1.15-.02-.29.01-.58-.24-.86.02l2.93.54c.15.03.32-.04.49-.06-.41-.27-.9-.33-1.41-.47ZM21.49,54.26l1.75.45c-.23.01-.25.07-.08.15.3-.28.56-.09.84-.04.93.17,1.87.24,2.82.25.42,0,.77,0,1.17.15.32.12.75-.06,1.04.11.13.08.09-.09.07-.16-.01-.04-.06-.03-.16-.05.05-.21-.03-.42.07-.6l.08.52c.15-.76.07-.91.06-1.55v-4.22c-.32-.11-.6-.02-.92,0l-2.77.18-1.99.34c-.33.06-.6.14-.96-.02,0,.15.14.08.17.2-.38-.05-.62.08-.92.16-1.06.29-2.11.56-3.07,1.11-.23.13-.41.32-.66.41-.17.06-.24.23-.39.32-.14.08-.48.24-.4.4.17.36,1.12.96,1.54,1.04.44.08.83.29,1.29.43-.06.08-.15.04-.21.1,1.03.53.82.14,1.6.34ZM39.81,54.12c-.37-.08-1.32.49-1.46.22.46-.11.85-.3,1.27-.37.5-.08.91-.2,1.36-.43.39-.2,1.4-.63,1.42-1.05,0-.18.13.19.18.08.13-.27-.06-.65-.31-.8.04-.06.11-.09.09-.11-.03-.03-.1-.12-.14-.12-.17-.02-1.8-.7-1.46-.61l-.61-.16c-.35-.09-.7-.25-1.06-.37-.67-.22-1.32-.41-2-.48l.35-.1c-.5-.26-1.02-.23-1.53-.29l-1.18-.13-.71-.02c-1.15-.04-2.27-.21-3.44-.14-.1.33.1,1.23-.04,1.52s.02.37.07.59c.08.35.04,1.65.04,1.66-.2.43.01,1.34.06,1.26-.23.44-.09.22-.14,1,.89.07,1.75-.04,2.66-.09.61-.03,1.18-.07,1.85-.2-.08.31-.37.22-.63.31.54.05,1.11.1,1.66-.02l.72-.16c.45-.1.9-.12,1.28-.33l-.29-.09c.35.03.65-.15,1-.26s.71-.11,1-.31ZM22.27,55c-.52-.13-.99-.34-1.54-.45-.3-.06-.63-.37-.89-.26s-.47-.04-.74-.11l-1.12-.31c-.13.16,1.9.78,2.06.61.73.26,1.42.54,2.24.52ZM40.96,54.18c-.47.13-.79.35-1.12.54.48-.05.84-.28,1.12-.54ZM21.41,55.06l-1.68-.45c-.12-.03-.19-.15-.35-.09.03.11.13.09.17.16-.48-.03-.78-.35-1.29-.44.24.22.57.29.86.48.85.54,1.06-.15,1.38.36.27-.26.65.1.9-.02ZM21.16,55.28c-.18-.07-.42-.08-.63-.09.35.16,3.37,1,3.5.58-.58-.02-2.52-.37-2.87-.5Z"/><path class="cls-1" d="M302.76,41.95l-6.46-6.58h-4.89s-.13,6.54-.13,6.54c-.99.11-1.8.12-2.75.02v-17.76s12.31.02,12.31.02c3.03,0,5.14,2.96,5.06,5.67-.09,2.99-2.19,5.21-5.64,5.59l6.23,6.48-3.74.02ZM299.79,32.65c1.9.02,3.25-1.18,3.34-2.78s-1.14-3.04-2.89-3.03l-8.83.04c-.15,2-.15,3.7,0,5.68l8.38.08Z"/><path class="cls-1" d="M422.02,41.95l-6.46-6.58h-4.89s-.13,6.54-.13,6.54c-.99.11-1.8.12-2.75.02v-17.76s12.31.02,12.31.02c3.03,0,5.14,2.96,5.06,5.67-.09,2.99-2.19,5.21-5.64,5.59l6.23,6.48-3.74.02ZM419.05,32.65c1.9.02,3.25-1.18,3.34-2.78s-1.14-3.04-2.89-3.03l-8.83.04c-.15,2-.15,3.7,0,5.68l8.38.08Z"/><path class="cls-1" d="M325.16,34.41l-9.15.06c-.17,1.58-.19,2.99.01,4.7l13.66.06c.22.86.22,1.71.07,2.73l-16.63.03v-17.81s16.53-.05,16.53-.05c.33.81.21,1.65.07,2.67l-13.7.08c-.19,1.7-.18,3.11,0,4.76l9.11.07c.2.83.19,1.72.04,2.7Z"/><path class="cls-1" d="M373.1,34.41l-9.15.06c-.17,1.58-.19,2.99.01,4.7l13.66.06c.22.86.22,1.71.07,2.73l-16.63.03v-17.81s16.53-.05,16.53-.05c.33.81.21,1.65.07,2.67l-13.7.08c-.19,1.7-.18,3.11,0,4.76l9.11.07c.2.83.19,1.72.04,2.7Z"/><path class="cls-1" d="M353.52,37.96c-1.22,5.84-14.52,5.44-16.95.85.76-.59,1.54-.79,2.16-1.61,1.68,3.09,12.06,3.33,12.23-.16.19-3.92-9.81-1.36-13-4.9-1.06-1.17-1.18-2.71-.77-4.27,1.39-5.32,14.1-5.51,15.98-.62-1.15.22-1.63.82-2.45,1.07-1.55-2.78-11.3-2.47-11,.93.39,4.49,15.68-.32,13.8,8.7Z"/><path class="cls-1" d="M474.47,41.8c-.81.35-1.63.2-2.64.11l-.13-7.46h-12.2s-.09,7.39-.09,7.39c-.87.24-1.76.17-2.78.09v-17.64c.9-.31,1.86-.2,2.76-.02l.1,7.38h12.22s.09-7.41.09-7.41c.88-.18,1.73-.19,2.64,0l.02,17.55Z"/><path class="cls-1" d="M397.07,38.62l-9.01-.03c-.82,1-.9,2.37-1.78,3.15-.68.59-2.06.16-3.01.12l9.09-18.57,9.6,18.64c-.87.07-1.92.07-3.14.02-.65-1.01-1.07-1.93-1.75-3.33ZM395.59,35.73l-3.13-6.22c-1.28,2.09-2.04,4.02-3.12,6.31,2.29.12,4.13.26,6.25-.09Z"/><path class="cls-1" d="M436.6,37.66c3.45,2.57,8.19,1.94,10.82-1.33.86.35,1.57.83,2.25,1.56-3.6,4.84-10.76,5.48-15.29,1.51-2.05-1.79-3.03-4.16-2.91-6.81.11-2.47,1.36-4.86,3.58-6.48,4.57-3.33,11.21-2.52,14.63,2.07l-2.16,1.78c-2.64-3.83-8.44-4.28-11.76-.76-2.35,2.48-1.97,6.34.86,8.45Z"/><path class="cls-2" d="M267.39,34.97l-8.19.1c-.27.95-.27,1.8,0,2.73h12.27s0,4.18,0,4.18h-17.07s.03-17.84.03-17.84h16.98c.14,1.4.11,2.67.02,4.15l-12.01.12c-.6.2-.57,2-.15,2.56l8.03.15c.24,1.21.12,2.5.08,3.85Z"/><path class="cls-2" d="M112.66,35.41c-.26-1.14-.08-2.26-.1-3.55l9.28.02c-.34,1.8.45,3.84-.19,5.44-1.32,2.84-4.55,4.39-7.16,4.71-3.51.44-6.62-.6-8.98-3.02-3.2-3.29-3.29-8.42-.13-11.81,4.35-4.65,11.99-4.32,15.85.67-1.21.99-2.46,1.75-3.75,2.53-2.04-2.33-5.48-2.84-7.95-.89-2.06,1.62-2.46,4.44-.66,6.43,2.34,2.58,6.65,2.41,8.69-.46l-4.89-.07Z"/><path class="cls-2" d="M217.91,40.1c-3.69,2.73-8.72,2.7-12.39.17-2.57-1.77-3.91-4.41-3.88-7.39s1.48-5.46,4.05-7.18c3.77-2.52,8.87-2.36,12.44.45,2.28,1.8,3.51,4.25,3.46,7.01s-1.27,5.16-3.68,6.94ZM215.99,35.68c.97-1.27,1.17-2.87.55-4.3-.92-2.17-3.16-3.19-5.43-3.04-2.07.14-4.17,1.54-4.71,3.79-.4,1.68.32,3.19,1.39,4.18,2.22,2.06,6.23,1.94,8.19-.64Z"/><path class="cls-2" d="M146.77,41.87c-1.59.21-3.06.12-4.62.05l-.07-6.67h-8.81s-.13,6.7-.13,6.7h-4.58s0-17.71,0-17.71c1.47-.23,2.91-.09,4.56-.07l.14,6.75h8.81s.15-6.77.15-6.77c1.65-.03,3.02-.09,4.52.04l.03,17.68Z"/><path class="cls-2" d="M246.53,42.71l-13.43-10.41-.14,9.6c-1.52.17-2.99.06-4.62.07l.05-18.54,13.44,10.43.17-9.69,4.54.03v18.51Z"/><path class="cls-2" d="M183.25,36.32c2.73,2.42,6.83,1.67,8.71-1.34,1.27.83,2.48,1.55,3.71,2.56-1.7,2.84-4.77,4.33-7.71,4.55-3.44.25-6.66-.96-8.87-3.56-2.8-3.3-2.69-8.14.3-11.31,4.54-4.8,12.45-4.27,16.17,1.08l-3.66,2.81c-1.81-3.14-5.76-3.62-8.36-1.6-2.21,1.71-2.5,4.83-.28,6.8Z"/><path class="cls-2" d="M164.66,41.87c-1.54.25-3,.07-4.63.1v-13.52s-6.67-.12-6.67-.12c-.11-1.37-.1-2.69-.02-4.16l18-.03c.15,1.41.08,2.67.04,4.18l-6.69.13-.04,13.42Z"/><path class="cls-2" d="M84.94,37.65v4.3s-15.42.04-15.42.04l.03-17.82c1.67-.03,3.15-.17,4.6.09l.04,13.41,10.74-.03Z"/><path class="cls-2" d="M96.05,41.92l-4.65.04.03-17.78c1.57-.09,2.93-.07,4.58,0l.04,17.74Z"/></svg>